<?xml version="1.0" encoding="UTF-8" standalone="no"?>
<!--?xml version="1.0" encoding="utf-8"?-->

<!-- Generator: Adobe Illustrator 18.1.1, SVG Export Plug-In . SVG Version: 6.00 Build 0)  -->

<svg
   xmlns:dc="http://purl.org/dc/elements/1.1/"
   xmlns:cc="http://creativecommons.org/ns#"
   xmlns:rdf="http://www.w3.org/1999/02/22-rdf-syntax-ns#"
   xmlns:svg="http://www.w3.org/2000/svg"
   xmlns="http://www.w3.org/2000/svg"
   xmlns:sodipodi="http://sodipodi.sourceforge.net/DTD/sodipodi-0.dtd"
   xmlns:inkscape="http://www.inkscape.org/namespaces/inkscape"
   version="1.1"
   id="_x32_"
   x="0px"
   y="0px"
   viewBox="0 0 3000 512"
   style="opacity:1"
   xml:space="preserve"
   sodipodi:docname="logo.svg"
   inkscape:version="0.92.1 r15371"
   width="3000"
   height="512"><metadata
     id="metadata19"><rdf:RDF><cc:Work
         rdf:about=""><dc:format>image/svg+xml</dc:format><dc:type
           rdf:resource="http://purl.org/dc/dcmitype/StillImage" /><dc:title /></cc:Work></rdf:RDF></metadata><defs
     id="defs17" /><sodipodi:namedview
     pagecolor="#ffffff"
     bordercolor="#666666"
     borderopacity="1"
     objecttolerance="10"
     gridtolerance="10"
     guidetolerance="10"
     inkscape:pageopacity="0"
     inkscape:pageshadow="2"
     inkscape:window-width="2201"
     inkscape:window-height="1153"
     id="namedview15"
     showgrid="false"
     inkscape:zoom="0.23046875"
     inkscape:cx="186.22385"
     inkscape:cy="328.07515"
     inkscape:window-x="1189"
     inkscape:window-y="463"
     inkscape:window-maximized="0"
     inkscape:current-layer="_x32_" /><style
     type="text/css"
     id="style2">
	.st0{fill:#4B4B4B;}
</style><g
     id="g12"><path
       class="st0"
       d="m 284.257,275.686 c -0.571,0.068 -1.173,0.115 -1.798,0.115 -4.457,0.039 -10.658,-2.136 -15.5,-4.426 -2.445,-1.134 -4.566,-2.283 -6.07,-3.139 -0.332,-0.185 -0.502,-0.293 -0.779,-0.455 v -10.682 c 7.033,-1.411 12.478,-6.292 16.288,-12.014 4.534,-6.803 -3.402,-13.604 -20.406,-13.604 -16.99,0 -24.925,6.802 -20.398,13.604 4.072,6.108 9.994,11.266 17.714,12.254 v 10.45 c -1.789,1.049 -4.959,2.799 -8.714,4.426 -4.473,1.966 -9.732,3.617 -13.62,3.586 -0.624,0 -1.241,-0.047 -1.796,-0.115 -1.867,-0.263 -3.579,1.041 -3.833,2.907 -0.254,1.859 1.049,3.571 2.908,3.818 0.887,0.123 1.789,0.192 2.722,0.192 6.378,-0.038 13.056,-2.614 18.37,-5.067 3.208,-1.496 5.745,-2.922 7.365,-3.871 1.62,0.949 4.157,2.376 7.365,3.871 5.329,2.453 12,5.028 18.385,5.067 0.918,0 1.836,-0.069 2.707,-0.192 1.859,-0.246 3.178,-1.959 2.908,-3.818 -0.248,-1.859 -1.96,-3.171 -3.818,-2.907 z"
       id="path4"
       inkscape:connector-curvature="0"
       style="fill:#4b4b4b" /><path
       class="st0"
       d="m 208.124,202.359 c -6.316,0 -11.43,5.128 -11.43,11.43 0,6.316 5.114,11.444 11.43,11.444 6.308,0 11.429,-5.128 11.429,-11.444 0,-6.301 -5.121,-11.43 -11.429,-11.43 z"
       id="path6"
       inkscape:connector-curvature="0"
       style="fill:#4b4b4b" /><path
       class="st0"
       d="M 255.992,24.274 C 114.608,24.274 0,138.89 0,280.282 c 0,85.372 41.829,160.934 106.071,207.438 19.056,-27.347 15.008,-179.089 25.45,-247.54 0.586,-3.825 1.311,-7.481 2.098,-11.044 -45.74,-17.768 -33.501,-68.706 -13.064,-81.354 24.786,-15.339 41.128,-3.293 49.996,14.506 27.686,-24.833 63.023,-31.033 85.442,-31.033 22.434,0 57.77,6.2 85.449,31.033 8.876,-17.799 25.203,-29.846 49.989,-14.506 20.452,12.647 32.683,63.585 -13.049,81.354 0.787,3.563 1.496,7.219 2.083,11.044 10.457,68.451 6.393,220.208 25.457,247.547 C 470.162,441.216 512,365.653 512,280.282 512,138.89 397.376,24.274 255.992,24.274 Z"
       id="path8"
       inkscape:connector-curvature="0"
       style="fill:#4b4b4b" /><path
       class="st0"
       d="m 303.876,202.359 c -6.324,0 -11.445,5.128 -11.445,11.43 0,6.316 5.122,11.444 11.445,11.444 6.3,0 11.429,-5.128 11.429,-11.444 0,-6.301 -5.129,-11.43 -11.429,-11.43 z"
       id="path10"
       inkscape:connector-curvature="0"
       style="fill:#4b4b4b" /></g><flowRoot
     xml:space="preserve"
     id="flowRoot4496"
     style="font-style:normal;font-weight:normal;font-size:40px;line-height:11.25;font-family:sans-serif;letter-spacing:0px;word-spacing:0px;fill:#000000;fill-opacity:1;stroke:none"><flowRegion
       id="flowRegion4498"
       style="line-height:11.25"><rect
         id="rect4500"
         width="2269.2881"
         height="338.44067"
         x="551.05084"
         y="67.254234"
         style="line-height:11.25" /></flowRegion><flowPara
       id="flowPara4502" /></flowRoot><flowRoot
     xml:space="preserve"
     id="flowRoot4504"
     style="font-style:normal;font-weight:normal;font-size:40px;line-height:30em;font-family:sans-serif;letter-spacing:0px;word-spacing:0px;fill:#000000;fill-opacity:1;stroke:none"><flowRegion
       id="flowRegion4506"
       style="line-height:30em"><rect
         id="rect4508"
         width="1614.1017"
         height="483.7966"
         x="548.88135"
         y="23.864407"
         style="line-height:30em" /></flowRegion><flowPara
       id="flowPara4510" /></flowRoot><flowRoot
     xml:space="preserve"
     id="flowRoot4512"
     style="font-style:normal;font-weight:normal;font-size:40px;line-height:1.25;font-family:sans-serif;letter-spacing:0px;word-spacing:0px;fill:#000000;fill-opacity:1;stroke:none"><flowRegion
       id="flowRegion4514"><rect
         id="rect4516"
         width="2436.3389"
         height="1165.017"
         x="568.4068"
         y="97.627121" /></flowRegion><flowPara
       style="font-size:192px;line-height:2em"
       id="flowPara4528" /></flowRoot><flowRoot
     xml:space="preserve"
     id="flowRoot4532"
     style="font-style:normal;font-weight:normal;font-size:40px;line-height:1.25;font-family:sans-serif;letter-spacing:0px;word-spacing:0px;fill:#000000;fill-opacity:1;stroke:none"><flowRegion
       id="flowRegion4534"><rect
         id="rect4536"
         width="2123.9321"
         height="674.71185"
         x="542.37286"
         y="427.38983" /></flowRegion><flowPara
       id="flowPara4538" /></flowRoot><g
     aria-label="KUMA Tech"
     transform="matrix(2.0350716,0,0,1.6881042,-500.7124,77.087184)"
     style="font-style:normal;font-weight:normal;font-size:40px;line-height:1.25;font-family:sans-serif;letter-spacing:0px;word-spacing:0px;fill:#000000;fill-opacity:1;stroke:none"
     id="flowRoot4540"><path
       d="M 546.72656,186.01508 V 47.921327 h 43.96875 v 45.75 l 39.75,-45.75 h 51.46875 l -49.3125,50.90625 55.6875,87.187503 h -52.875 l -33.75,-55.3125 -10.96875,11.34375 v 43.96875 z"
       style="font-style:normal;font-variant:normal;font-weight:normal;font-stretch:normal;font-family:'Swis721 Blk BT';-inkscape-font-specification:'Swis721 Blk BT'"
       id="path4519"
       inkscape:connector-curvature="0" /><path
       d="m 689.22656,47.921327 h 44.34375 v 85.125003 q 0,11.8125 4.875,16.875 4.96875,4.96875 16.5,4.96875 11.25,0 16.03125,-4.875 4.875,-4.96875 4.875,-16.96875 V 47.921327 h 44.34375 v 88.593753 q 0,25.96875 -16.78125,39.65625 -16.6875,13.6875 -48.46875,13.6875 -31.96875,0 -48.84375,-13.6875 -16.875,-13.78125 -16.875,-39.65625 z"
       style="font-style:normal;font-variant:normal;font-weight:normal;font-stretch:normal;font-family:'Swis721 Blk BT';-inkscape-font-specification:'Swis721 Blk BT'"
       id="path4521"
       inkscape:connector-curvature="0" /><path
       d="m 886.10156,186.01508 h -40.125 V 47.921327 h 54 l 19.125,68.906253 q 0.375,1.40625 1.5,6.46875 1.125,4.96875 3.1875,13.78125 1.3125,-6.9375 2.4375,-12.09375 1.125,-5.25 1.96875,-7.875 l 19.59375,-69.187503 h 53.90624 V 186.01508 h -40.12499 l 0.375,-67.96875 q 0,-6.1875 0,-12 0.0937,-5.90625 0.1875,-12.187503 -2.25,10.687503 -5.4375,23.343753 l -0.28125,1.21875 -17.0625,67.59375 h -30.9375 l -17.25,-66.09375 q -1.21875,-4.5 -2.4375,-10.3125 -1.21875,-5.8125 -3.1875,-15.750003 0.28125,8.906253 0.375,15.281253 0.1875,6.375 0.1875,10.21875 z"
       style="font-style:normal;font-variant:normal;font-weight:normal;font-stretch:normal;font-family:'Swis721 Blk BT';-inkscape-font-specification:'Swis721 Blk BT'"
       id="path4523"
       inkscape:connector-curvature="0" /><path
       d="m 1071.2578,138.76508 h 27.8438 l -13.7813,-47.812503 z m -57,47.25 48.5625,-138.093753 h 44.9063 l 48.5625,138.093753 h -43.9688 l -5.1562,-18.28125 h -43.9688 l -5.3437,18.28125 z"
       style="font-style:normal;font-variant:normal;font-weight:normal;font-stretch:normal;font-family:'Swis721 Blk BT';-inkscape-font-specification:'Swis721 Blk BT'"
       id="path4525"
       inkscape:connector-curvature="0" /><path
       d="m 1337.5078,62.921327 h -49.875 V 186.01508 h -18.5625 V 62.921327 h -49.875 v -16.5 h 118.3125 z"
       style="font-style:normal;font-variant:normal;font-weight:normal;font-stretch:normal;font-size:192px;font-family:sans-serif;-inkscape-font-specification:sans-serif"
       id="path4527"
       inkscape:connector-curvature="0" /><path
       d="m 1442.6953,135.48383 h -77.1562 q 0,9.65625 2.9062,16.875 2.9063,7.125 7.9688,11.71875 4.875,4.5 11.5312,6.75 6.75,2.25 14.8125,2.25 10.6875,0 21.4688,-4.21875 10.875,-4.3125 15.4687,-8.4375 h 0.9375 v 19.21875 q -8.9062,3.75 -18.1875,6.28125 -9.2812,2.53125 -19.5,2.53125 -26.0625,0 -40.6875,-14.0625 -14.625,-14.15625 -14.625,-40.125 0,-25.6875 13.9688,-40.781253 14.0625,-15.09375 36.9375,-15.09375 21.1875,0 32.625,12.375 11.5312,12.375003 11.5312,35.156253 z m -17.1562,-13.5 q -0.094,-13.875 -7.0313,-21.46875 -6.8437,-7.593753 -20.9062,-7.593753 -14.1563,0 -22.5938,8.343753 -8.3437,8.34375 -9.4687,20.71875 z"
       style="font-style:normal;font-variant:normal;font-weight:normal;font-stretch:normal;font-size:192px;font-family:sans-serif;-inkscape-font-specification:sans-serif"
       id="path4529"
       inkscape:connector-curvature="0" /><path
       d="m 1546.8516,179.45258 q -8.8125,4.21875 -16.7813,6.5625 -7.875,2.34375 -16.7812,2.34375 -11.3438,0 -20.8125,-3.28125 -9.4688,-3.375 -16.2188,-10.125 -6.8437,-6.75 -10.5937,-17.0625 -3.75,-10.3125 -3.75,-24.09375 0,-25.6875 14.0625,-40.312503 14.1562,-14.625 37.3125,-14.625 9,0 17.625,2.53125 8.7187,2.53125 15.9375,6.1875 v 19.593753 h -0.9375 q -8.0625,-6.28125 -16.6875,-9.656253 -8.5313,-3.375 -16.6875,-3.375 -15,0 -23.7188,10.125003 -8.625,10.03125 -8.625,29.53125 0,18.9375 8.4375,29.15625 8.5313,10.125 23.9063,10.125 5.3437,0 10.875,-1.40625 5.5312,-1.40625 9.9375,-3.65625 3.8437,-1.96875 7.2187,-4.125 3.375,-2.25 5.3438,-3.84375 h 0.9375 z"
       style="font-style:normal;font-variant:normal;font-weight:normal;font-stretch:normal;font-size:192px;font-family:sans-serif;-inkscape-font-specification:sans-serif"
       id="path4531"
       inkscape:connector-curvature="0" /><path
       d="m 1657.1016,186.01508 h -17.625 v -59.625 q 0,-7.21875 -0.8438,-13.5 -0.8437,-6.375 -3.0937,-9.9375 -2.3438,-3.937503 -6.75,-5.812503 -4.4063,-1.96875 -11.4375,-1.96875 -7.2188,0 -15.0938,3.5625 -7.875,3.562503 -15.0937,9.093753 v 78.1875 h -17.625 V 40.140077 h 17.625 v 52.78125 q 8.25,-6.84375 17.0625,-10.6875 8.8125,-3.84375 18.0937,-3.84375 16.9688,0 25.875,10.21875 8.9063,10.21875 8.9063,29.437503 z"
       style="font-style:normal;font-variant:normal;font-weight:normal;font-stretch:normal;font-size:192px;font-family:sans-serif;-inkscape-font-specification:sans-serif"
       id="path4533"
       inkscape:connector-curvature="0" /></g><flowRoot
     xml:space="preserve"
     id="flowRoot4552"
     style="font-style:normal;font-weight:normal;font-size:40px;line-height:1.25;font-family:sans-serif;letter-spacing:0px;word-spacing:0px;fill:#000000;fill-opacity:1;stroke:none"><flowRegion
       id="flowRegion4554"><rect
         id="rect4556"
         width="310.23727"
         height="54.237289"
         x="930.71185"
         y="39.050846" /></flowRegion><flowPara
       id="flowPara4558" /></flowRoot><flowRoot
     xml:space="preserve"
     id="flowRoot4560"
     style="font-style:normal;font-weight:normal;font-size:40px;line-height:1.25;font-family:sans-serif;letter-spacing:0px;word-spacing:0px;fill:#000000;fill-opacity:1;stroke:none"><flowRegion
       id="flowRegion4562"><rect
         id="rect4564"
         width="8.6779661"
         height="128"
         x="1711.7288"
         y="6.5084743" /></flowRegion><flowPara
       id="flowPara4566" /></flowRoot></svg>